<?xml version="1.0" encoding="iso-8859-1"?>
<!-- Uploaded to: SVG Repo, www.svgrepo.com, Generator: SVG Repo Mixer Tools -->
<svg height="800px" width="800px" version="1.1" id="Layer_1" xmlns="http://www.w3.org/2000/svg" xmlns:xlink="http://www.w3.org/1999/xlink" 
	 viewBox="0 0 392.598 392.598" xml:space="preserve">
<path style="fill:#FFFFFF;" d="M107.733,189.156c23.984,0,43.442-19.459,43.442-43.442s-19.459-43.442-43.442-43.442
	s-43.442,19.459-43.442,43.442S83.814,189.156,107.733,189.156z"/>
<path style="fill:#56ACE0;" d="M163.329,251.604h-11.442l-34.133,77.576c-3.814,8.663-16.162,8.663-19.911,0L63.58,251.604H52.137
	c-16.679,0-30.319,13.511-30.319,30.319v0.776H56.21c6.012,0,10.925,4.848,10.925,10.925c0,6.012-4.848,10.925-10.925,10.925H21.818
	v21.786h16.614c6.012,0,10.925,4.849,10.925,10.925c0,6.012-4.848,10.925-10.925,10.925H21.818v22.626h171.766v-89.018
	C193.584,265.115,180.073,251.604,163.329,251.604z"/>
<path style="fill:#FFC10D;" d="M361.018,21.786H232.372c-5.301,0-9.632,4.331-9.632,9.632v77.834c0,5.301,4.331,9.632,9.632,9.632
	h13.705c6.012,0,10.925,4.848,10.925,10.925v22.432l30.125-30.125c2.004-2.004,4.784-3.168,7.758-3.168h66.198
	c5.301,0,9.632-4.331,9.632-9.632v-77.77C370.78,26.117,366.449,21.786,361.018,21.786z"/>
<g>
	<path style="fill:#194F82;" d="M107.733,210.941c36.008,0,65.228-29.285,65.228-65.228s-29.285-65.228-65.228-65.228
		s-65.228,29.285-65.228,65.228S71.725,210.941,107.733,210.941z M107.733,102.271c23.984,0,43.442,19.459,43.442,43.442
		s-19.459,43.442-43.442,43.442s-43.442-19.459-43.442-43.442S83.814,102.271,107.733,102.271z"/>
	<path style="fill:#194F82;" d="M163.329,229.754h-18.554c-4.331,0-8.275,2.521-9.956,6.465l-27.152,61.479l-27.152-61.479
		c-1.745-3.943-5.624-6.465-9.956-6.465H52.008c-28.638,0-51.976,23.337-51.976,52.17v99.749c0,6.012,4.848,10.925,10.925,10.925
		h193.552c6.012,0,10.925-4.849,10.925-10.925v-99.814C215.37,253.091,192.097,229.754,163.329,229.754z M193.648,370.747h-0.065
		H21.818v-22.626h16.614c6.012,0,10.925-4.848,10.925-10.925c0-6.012-4.848-10.925-10.925-10.925H21.818v-21.85H56.21
		c6.012,0,10.925-4.848,10.925-10.925c0-6.012-4.848-10.925-10.925-10.925H21.818v-0.776c0-16.679,13.511-30.319,30.319-30.319
		H63.58l34.263,77.576c3.814,8.663,16.162,8.663,19.911,0l34.263-77.576h11.442c16.679,0,30.319,13.511,30.319,30.319v88.954
		H193.648z"/>
	<path style="fill:#194F82;" d="M361.018,0H232.372c-17.39,0-31.547,14.158-31.547,31.547v77.834
		c0,17.39,14.158,31.547,31.547,31.547h2.78v37.883c0,9.762,11.766,14.61,18.618,7.758l45.511-45.511h61.737
		c17.39,0,31.547-14.158,31.547-31.547V31.547C392.566,14.158,378.408,0,361.018,0z M361.147,119.014h-66.263
		c-2.844,0-5.624,1.164-7.758,3.168l-30.061,30.125v-22.432c0-6.012-4.848-10.925-10.925-10.925h-13.705
		c-5.301,0-9.632-4.331-9.632-9.632v-77.77c0-5.301,4.331-9.632,9.632-9.632h128.646c5.301,0,9.632,4.331,9.632,9.632v77.834l0,0
		C370.78,114.683,366.449,119.014,361.147,119.014z"/>
	<path style="fill:#194F82;" d="M257.131,59.798h-5.883c-6.012,0-10.925,4.848-10.925,10.925c0,6.077,4.848,10.925,10.925,10.925
		h5.883c6.012,0,10.925-4.848,10.925-10.925C268.057,64.646,263.143,59.798,257.131,59.798z"/>
	<path style="fill:#194F82;" d="M299.669,59.798h-5.883c-6.012,0-10.925,4.848-10.925,10.925c0,6.077,4.848,10.925,10.925,10.925
		h5.883c6.012,0,10.925-4.848,10.925-10.925C310.594,64.646,305.745,59.798,299.669,59.798z"/>
	<path style="fill:#194F82;" d="M342.271,59.798h-5.883c-6.012,0-10.925,4.848-10.925,10.925c0,6.077,4.849,10.925,10.925,10.925
		h5.883c6.012,0,10.925-4.848,10.925-10.925C353.196,64.646,348.283,59.798,342.271,59.798z"/>
</g>
</svg>